<svg width="30" height="30" viewBox="0 0 30 30" fill="none" xmlns="http://www.w3.org/2000/svg">
<mask id="mask0_2034_18025" style="mask-type:alpha" maskUnits="userSpaceOnUse" x="2" y="2" width="26" height="26">
<rect x="2.5" y="2.5" width="25" height="25" fill="#D9D9D9"/>
</mask>
<g mask="url(#mask0_2034_18025)">
<path d="M8.75 23.3307C8.45486 23.3307 8.20747 23.2309 8.00781 23.0312C7.80816 22.8316 7.70833 22.5842 7.70833 22.2891V16.0391H6.66667C6.37153 16.0391 6.12413 15.9392 5.92448 15.7396C5.72483 15.5399 5.625 15.2925 5.625 14.9974C5.625 14.7023 5.72483 14.4549 5.92448 14.2552C6.12413 14.0556 6.37153 13.9557 6.66667 13.9557H10.8333C11.1285 13.9557 11.3759 14.0556 11.5755 14.2552C11.7752 14.4549 11.875 14.7023 11.875 14.9974C11.875 15.2925 11.7752 15.5399 11.5755 15.7396C11.3759 15.9392 11.1285 16.0391 10.8333 16.0391H9.79167V22.2891C9.79167 22.5842 9.69184 22.8316 9.49219 23.0312C9.29253 23.2309 9.04514 23.3307 8.75 23.3307ZM8.75 11.8724C8.45486 11.8724 8.20747 11.7726 8.00781 11.5729C7.80816 11.3733 7.70833 11.1259 7.70833 10.8307V7.70573C7.70833 7.41059 7.80816 7.16319 8.00781 6.96354C8.20747 6.76389 8.45486 6.66406 8.75 6.66406C9.04514 6.66406 9.29253 6.76389 9.49219 6.96354C9.69184 7.16319 9.79167 7.41059 9.79167 7.70573V10.8307C9.79167 11.1259 9.69184 11.3733 9.49219 11.5729C9.29253 11.7726 9.04514 11.8724 8.75 11.8724ZM12.9167 11.8724C12.6215 11.8724 12.3741 11.7726 12.1745 11.5729C11.9748 11.3733 11.875 11.1259 11.875 10.8307C11.875 10.5356 11.9748 10.2882 12.1745 10.0885C12.3741 9.88889 12.6215 9.78906 12.9167 9.78906H13.9583V7.70573C13.9583 7.41059 14.0582 7.16319 14.2578 6.96354C14.4575 6.76389 14.7049 6.66406 15 6.66406C15.2951 6.66406 15.5425 6.76389 15.7422 6.96354C15.9418 7.16319 16.0417 7.41059 16.0417 7.70573V9.78906H17.0833C17.3785 9.78906 17.6259 9.88889 17.8255 10.0885C18.0252 10.2882 18.125 10.5356 18.125 10.8307C18.125 11.1259 18.0252 11.3733 17.8255 11.5729C17.6259 11.7726 17.3785 11.8724 17.0833 11.8724H12.9167ZM15 23.3307C14.7049 23.3307 14.4575 23.2309 14.2578 23.0312C14.0582 22.8316 13.9583 22.5842 13.9583 22.2891V14.9974C13.9583 14.7023 14.0582 14.4549 14.2578 14.2552C14.4575 14.0556 14.7049 13.9557 15 13.9557C15.2951 13.9557 15.5425 14.0556 15.7422 14.2552C15.9418 14.4549 16.0417 14.7023 16.0417 14.9974V22.2891C16.0417 22.5842 15.9418 22.8316 15.7422 23.0312C15.5425 23.2309 15.2951 23.3307 15 23.3307ZM21.25 23.3307C20.9549 23.3307 20.7075 23.2309 20.5078 23.0312C20.3082 22.8316 20.2083 22.5842 20.2083 22.2891V20.2057H19.1667C18.8715 20.2057 18.6241 20.1059 18.4245 19.9062C18.2248 19.7066 18.125 19.4592 18.125 19.1641C18.125 18.8689 18.2248 18.6215 18.4245 18.4219C18.6241 18.2222 18.8715 18.1224 19.1667 18.1224H23.3333C23.6285 18.1224 23.8759 18.2222 24.0755 18.4219C24.2752 18.6215 24.375 18.8689 24.375 19.1641C24.375 19.4592 24.2752 19.7066 24.0755 19.9062C23.8759 20.1059 23.6285 20.2057 23.3333 20.2057H22.2917V22.2891C22.2917 22.5842 22.1918 22.8316 21.9922 23.0312C21.7925 23.2309 21.5451 23.3307 21.25 23.3307ZM21.25 16.0391C20.9549 16.0391 20.7075 15.9392 20.5078 15.7396C20.3082 15.5399 20.2083 15.2925 20.2083 14.9974V7.70573C20.2083 7.41059 20.3082 7.16319 20.5078 6.96354C20.7075 6.76389 20.9549 6.66406 21.25 6.66406C21.5451 6.66406 21.7925 6.76389 21.9922 6.96354C22.1918 7.16319 22.2917 7.41059 22.2917 7.70573V14.9974C22.2917 15.2925 22.1918 15.5399 21.9922 15.7396C21.7925 15.9392 21.5451 16.0391 21.25 16.0391Z" fill="#4B4B4B"/>
</g>
</svg>
